<svg width="640" height="480" viewBox="0 0 640 480" xmlns="http://www.w3.org/2000/svg">
  <defs>
    <linearGradient id="sky" x1="0" x2="0" y1="0" y2="1">
      <stop offset="0%" stop-color="#0b3d91"/>
      <stop offset="100%" stop-color="#1a73e8"/>
    </linearGradient>
    <radialGradient id="earth" cx="50%" cy="50%" r="50%">
      <stop offset="0%" stop-color="#48c774"/>
      <stop offset="100%" stop-color="#2c7a4b"/>
    </radialGradient>
  </defs>
  <rect width="640" height="480" fill="url(#sky)"/>
  <circle cx="320" cy="240" r="150" fill="url(#earth)" stroke="#0b3d91" stroke-width="4"/>
  <path d="M320 120c40 10 60 30 80 60s15 70-10 90-70 25-100 0-30-60-10-90 40-50 80-60z" fill="#b8e994" opacity="0.8"/>
  <path d="M250 280c-30 0-60 10-70 30s5 50 30 60 55-5 65-25 5-45-25-65z" fill="#b8e994" opacity="0.8"/>
  <text x="320" y="440" text-anchor="middle" font-family="Arial, sans-serif" font-size="32" fill="#e5f2ff" font-weight="bold">Планета Земля</text>
</svg>
